# xmcd
#
# Track frame offsets: 
#        151
#        20458
#        38473
#        56876
#        70709
#        89816
#        110023
#        127084
#        143415
#        161818
#
# Disc length: 2381 seconds
#
# Revision: 0
# Processed by: cddbd v1.5.1PL2 Copyright (c) Steve Scherf et al.
# Submitted via: ExactAudioCopy v0.95b4
#
DISCID=8b094b0a
DTITLE=นกน้อย  อุไรพร - ยังฮักยังคอย
DYEAR=2003
DGENRE=Country
TTITLE0=ผู้สาวเฒ่า
TTITLE1=ยังฮักยังคอย
TTITLE2=หัวอกเมียบักเฒ่า
TTITLE3=คานทองจองตัว
TTITLE4=อีกสักกี่คน
TTITLE5=ฟังลำคิดฮอด
TTITLE6=คู่หวานบ้านใกล้
TTITLE7=เบอร์ไหนกันแน่
TTITLE8=แฟนปล่อย
TTITLE9=สาวจำปา
EXTD=
EXTT0=
EXTT1=
EXTT2=
EXTT3=
EXTT4=
EXTT5=
EXTT6=
EXTT7=
EXTT8=
EXTT9=
PLAYORDER=
